<?xml version="1.0" encoding="iso-8859-1"?>
<!-- Generator: Adobe Illustrator 16.0.0, SVG Export Plug-In . SVG Version: 6.00 Build 0)  -->
<!DOCTYPE svg PUBLIC "-//W3C//DTD SVG 1.1//EN" "http://www.w3.org/Graphics/SVG/1.1/DTD/svg11.dtd">
<svg version="1.1" id="Capa_1" xmlns="http://www.w3.org/2000/svg" xmlns:xlink="http://www.w3.org/1999/xlink" x="0px" y="0px"
	 width="93.562px" height="93.562px" viewBox="0 0 93.562 93.562" style="enable-background:new 0 0 93.562 93.562;"
	 xml:space="preserve">
<g>
	<g>
		<path d="M47.139,88.709c22.468,0,46.423-4.896,46.423-16.723c0-0.633,0-2.394,0-2.42V24.408c0-0.11,0-1.843,0-2.53
			c0-11.826-23.955-17.024-46.423-17.024C14.604,4.882,0,13.765,0,22.071c0,0.66,0.028,2.228,0.028,2.337v43.536
			C0.028,67.971,0,70.639,0,71.877C0,84.5,27.887,88.709,47.139,88.709z M8.085,32.274c7.563,4.07,20.379,7.013,39.053,7.013
			c14.329,0,29.374-2.2,38.365-6.848V61.15c-9.021-4.646-24.036-6.849-38.365-6.849c-12.541,0-29.042,1.953-39.026,6.793
			C8.085,61.068,8.085,32.274,8.085,32.274z M47.139,80.814c-26.237,0-39.988-6.931-39.988-9.322c0-2.393,13.751-9.324,39.988-9.324
			c25.166,0,38.75,6.629,38.75,9.324C85.889,74.187,72.303,80.814,47.139,80.814z M47.139,12.747c25.166,0,38.75,6.628,38.75,9.323
			c0,2.695-13.586,9.323-38.75,9.323c-25.88,0-39.466-6.931-39.466-9.323C7.673,19.678,21.231,12.747,47.139,12.747z"/>
	</g>
</g>
<g>
</g>
<g>
</g>
<g>
</g>
<g>
</g>
<g>
</g>
<g>
</g>
<g>
</g>
<g>
</g>
<g>
</g>
<g>
</g>
<g>
</g>
<g>
</g>
<g>
</g>
<g>
</g>
<g>
</g>
</svg>
